<svg width="162" height="152" viewBox="0 0 162 152" fill="none" xmlns="http://www.w3.org/2000/svg">
          <path d="M73.7108 110.799C59.1053 127.742 40.6851 145.717 29.0712 150.217C10.259 157.509 -6.90707 135.659 4.51085 103.461C12.8914 79.8171 40.5413 65.4756 64.5268 74.4431C72.7114 77.5046 74.9976 79.2586 88.6822 88.1211C18.2085 60.2199 9.54702 128.064 28.9275 133.057C37.6999 135.317 52.6059 130.548 73.7108 110.799Z" fill="url(#paint0_linear_1371_4391)"/>
          <path d="M134.167 37.55C166.919 12.454 141.47 6.97498 128.602 19.8317C121.73 26.697 121.907 37.2347 121.671 39.2384C120.705 38.4895 116.263 33.9236 113.082 29.7847C92.8979 3.53907 141.228 -10.7039 159.348 9.68166C168.747 20.2588 147.95 35.4871 134.174 37.55H134.167Z" fill="url(#paint1_linear_1371_4391)"/>
          <path d="M95.6683 96.267C86.8371 83.0949 81.2522 69.0819 84.7925 53.1768C86.223 46.7649 89.8222 41.4895 95.0151 37.1535C105.46 28.4291 122.737 36.3849 121.313 49.7212C120.882 53.7615 118.883 58.0252 116.277 60.5282C117.995 55.0426 118.197 53.7418 117.57 51.4622C117.348 50.8315 117.061 50.2205 116.721 49.6424C115.65 47.8292 114.428 46.8372 112.874 45.8517C108.171 42.8691 102.128 44.229 96.8441 51.8761C93.774 56.3171 91.9908 61.54 91.5205 66.9271C91.5074 67.0782 91.4944 67.2358 91.4813 67.3869C90.3382 82.3263 95.1784 94.7494 95.6618 96.2736L95.6683 96.267Z" fill="url(#paint2_linear_1371_4391)"/>
          <defs>
            <linearGradient id="paint0_linear_1371_4391" x1="16.8433" y1="56.8956" x2="104.287" y2="222.911" gradientUnits="userSpaceOnUse">
            <stop stopColor="#54E0E9"/>
            <stop offset="0.43" stopColor="#816CFF"/>
            <stop offset="0.95" stopColor="#B163FF"/>
            </linearGradient>
            <linearGradient id="paint1_linear_1371_4391" x1="125.643" y1="-0.409275" x2="213.087" y2="165.613" gradientUnits="userSpaceOnUse">
            <stop stopColor="#54E0E9"/>
            <stop offset="0.43" stopColor="#816CFF"/>
            <stop offset="0.95" stopColor="#B163FF"/>
            </linearGradient>
            <linearGradient id="paint2_linear_1371_4391" x1="82.944" y1="22.0894" x2="170.381" y2="188.105" gradientUnits="userSpaceOnUse">
            <stop stopColor="#54E0E9"/>
            <stop offset="0.43" stopColor="#816CFF"/>
            <stop offset="0.95" stopColor="#B163FF"/>
            </linearGradient>
          </defs>
        </svg>